<svg width="1024" height="1024" viewBox="0 0 1024 1024" fill="none" xmlns="http://www.w3.org/2000/svg">
<circle cx="512" cy="512" r="448" fill="url(#paint0_linear_661_117)"/>
<path d="M505.969 64C504.533 64 503.097 64 501.661 64C501.374 64 500.8 64 500.512 64C498.502 64 496.492 64 494.769 64.2872C493.907 64.2872 493.046 64.2872 492.184 64.2872C491.036 64.2872 489.6 64.2872 488.451 64.5744C482.707 64.8615 476.964 65.4359 471.22 66.2974C469.784 66.5846 468.348 66.5846 466.912 66.8718C466.625 66.8718 466.338 66.8718 466.051 66.8718C465.189 66.8718 464.328 67.159 463.179 67.159C462.318 67.159 461.743 67.4462 460.882 67.4462C460.307 67.4462 460.02 67.7333 459.446 67.7333C459.159 67.7333 459.159 67.7333 458.871 67.7333C457.148 68.0205 455.712 68.3077 453.989 68.5949H453.702C451.405 68.8821 449.394 69.4564 447.097 69.7436C446.523 69.7436 445.948 70.0308 445.374 70.0308C443.364 70.3179 441.641 70.8923 439.63 71.1795C437.62 71.4667 435.61 72.041 433.887 72.6154C433.6 72.6154 433.025 72.9026 432.738 72.9026C432.451 72.9026 432.164 73.1897 431.589 73.1897C431.015 73.4769 430.153 73.4769 429.579 73.7641C429.005 74.0513 428.43 74.0513 427.569 74.3385C427.282 74.3385 426.995 74.6256 426.707 74.6256C426.133 74.9128 425.271 74.9128 424.697 75.2C423.836 75.4872 422.974 75.7744 422.112 76.0615C421.251 76.3487 420.677 76.3487 419.815 76.6359C416.943 77.4974 414.359 78.359 411.487 79.2205C409.189 80.0821 406.892 80.6564 404.594 81.5179C401.148 82.6667 397.702 83.8154 394.256 85.2513C393.969 85.5385 393.394 85.5385 393.107 85.8256C391.959 86.4 390.523 86.6872 389.374 87.2615C387.651 87.8359 385.928 88.6974 384.205 89.2718C383.343 89.559 382.482 89.8462 381.62 90.4205C380.471 90.9949 379.323 91.282 377.887 91.8564C377.6 91.8564 377.312 92.1436 377.025 92.1436C376.738 92.1436 376.451 92.4308 376.164 92.4308C375.589 92.7179 375.015 93.0051 374.441 93.2923C374.153 93.5795 373.579 93.5795 373.292 93.8667C371.282 94.7282 369.271 95.5897 367.261 96.7385C365.825 97.3128 364.677 97.8872 363.241 98.7487C362.379 99.0359 361.805 99.6103 360.943 99.8974C360.369 100.185 359.795 100.472 359.22 100.759C357.497 101.621 355.774 102.482 354.051 103.344C353.189 103.918 352.328 104.205 351.466 104.779C351.466 104.779 351.466 104.779 351.179 104.779C350.03 105.354 348.594 106.215 347.446 107.077C346.871 107.364 346.01 107.938 345.436 108.226C344.861 108.513 344.574 108.8 344 109.087C343.138 109.662 342.564 109.949 341.702 110.523C341.128 110.81 340.266 111.385 339.692 111.672C339.118 111.959 338.543 112.533 337.682 112.821C337.682 112.821 337.394 112.821 337.394 113.108C335.097 114.544 332.512 115.979 330.215 117.703C328.492 118.851 326.769 120 325.046 121.149C324.184 121.723 323.323 122.297 322.461 122.872C320.738 124.021 319.302 125.169 317.579 126.318C317.292 126.318 317.005 126.605 317.005 126.892C316.718 127.179 316.43 127.179 316.143 127.467C315.569 127.754 314.994 128.328 314.42 128.615C312.697 130.051 310.974 131.2 309.251 132.636C307.241 134.359 304.943 135.795 302.933 137.518C301.497 138.667 299.774 140.103 298.338 141.251C297.189 142.113 296.041 143.262 294.892 144.123C294.03 144.985 292.882 145.846 292.02 146.708C291.733 146.995 291.446 147.282 291.159 147.569C288.861 149.579 286.277 151.877 283.979 154.174C281.969 156.185 279.959 158.195 277.948 159.918C275.938 161.928 273.928 163.938 271.918 165.949C269.907 167.959 268.184 169.969 266.174 171.979C219.938 222.81 188.923 287.713 181.169 359.795C179.733 371.569 179.159 383.631 179.159 395.979C179.159 398.277 179.159 400.287 179.159 402.585C179.733 426.42 182.605 449.682 187.774 472.082C187.774 472.944 187.487 473.518 187.487 474.379L153.312 441.067L85.5381 374.441C85.5381 374.154 85.5381 374.154 85.8253 373.867H85.5381C143.261 195.815 309.251 66.5846 505.969 64Z" fill="url(#paint1_linear_661_117)"/>
<path d="M937.887 373.867H937.313C908.595 283.98 842.543 210.749 757.251 172.554C715.61 153.888 669.661 143.549 621.128 143.549C598.154 143.549 575.754 145.847 554.215 150.441C539.569 153.313 525.497 157.334 511.425 162.216C489.313 169.97 468.349 180.021 448.82 191.795L469.21 150.441L511.713 64.2876C513.723 64.2876 515.733 64.2876 517.743 64.2876C714.174 66.585 880.164 195.816 937.887 373.867Z" fill="url(#paint2_linear_661_117)"/>
<path d="M376.164 807.795L334.523 829.621L249.231 874.421C248.944 874.133 248.656 873.846 248.082 873.559C230.851 860.923 214.482 847.138 198.974 832.205C115.692 751.22 64 637.497 64 511.713C64 463.754 71.4667 417.518 85.5385 374.154C75.2 406.031 69.7436 439.918 69.7436 475.241C69.7436 533.538 84.9641 588.39 111.385 636.061C145.846 698.092 199.549 748.062 264.738 777.641C277.949 783.672 291.446 788.841 305.518 792.862C326.769 799.467 349.169 803.774 372.144 805.785C373.58 806.646 375.015 807.22 376.164 807.795Z" fill="url(#paint3_linear_661_117)"/>
<path d="M959.426 511.714C959.426 660.472 886.769 792.575 775.057 873.847C849.149 819.857 899.98 735.714 909.744 639.508C910.893 628.308 911.467 617.108 911.467 605.621C911.467 546.175 895.959 490.175 868.39 441.929C860.923 428.719 852.595 416.083 843.405 404.308C829.621 386.216 813.826 369.56 796.595 354.626C796.308 354.052 796.021 353.765 795.734 353.19L841.108 359.796L936.451 373.58C936.451 373.867 936.739 374.155 936.739 374.442L937.313 374.155C951.959 417.519 959.426 463.755 959.426 511.714Z" fill="url(#paint4_linear_661_117)"/>
<path d="M773.907 874.421C700.389 927.836 609.641 959.426 511.712 959.426C434.174 959.426 361.23 939.611 297.477 904.862C341.128 926.113 390.236 937.888 442.215 937.888C466.338 937.888 489.887 935.303 512.287 930.421C581.21 915.488 642.092 879.303 687.753 829.047C698.092 817.847 707.282 805.785 715.897 793.149C728.246 775.057 738.871 756.103 747.487 735.713C748.636 734.565 749.784 733.416 750.646 732.267L758.4 777.067L774.769 873.272C774.769 874.134 774.482 874.421 773.907 874.421Z" fill="url(#paint5_linear_661_117)"/>
<path d="M747.775 736C739.16 756.103 728.534 775.344 716.185 793.436C707.57 806.072 698.093 817.846 688.042 829.333C642.38 879.59 581.498 915.774 512.575 930.708C489.888 935.59 466.626 938.174 442.503 938.174C390.524 938.174 341.703 926.4 297.765 905.149C281.108 895.959 265.026 885.908 249.519 874.708L334.811 829.908L376.452 808.082L379.037 806.646L458.585 765.005C475.529 774.482 493.334 782.523 511.713 789.128C545.888 801.19 582.934 807.795 621.416 807.795C629.17 807.795 637.211 807.508 644.965 806.933L647.549 808.369C648.985 807.795 650.421 807.221 651.57 806.359C687.754 788.841 720.206 765.005 747.775 736Z" fill="#FAF918"/>
<path d="M372.144 806.072C349.17 804.062 326.77 799.754 305.518 793.149C291.447 788.841 277.949 783.672 264.739 777.929C199.836 748.349 145.847 698.667 111.385 636.349C84.9647 588.677 69.7441 533.826 69.7441 475.529C69.7441 440.206 75.2006 406.318 85.539 374.441L153.888 441.067L188.062 474.38L189.211 475.529L254.113 538.708C250.38 557.662 248.083 577.19 247.508 597.293C247.508 600.165 247.508 602.749 247.508 605.621C247.508 650.421 256.411 693.498 272.78 732.554V732.841L273.067 733.129C300.924 763.282 334.524 788.267 372.144 806.072Z" fill="#FAF918"/>
<path d="M511.713 64L469.21 150.154L448.821 191.508C448.246 191.795 447.672 192.082 447.097 192.369C447.385 192.369 447.959 192.082 448.246 192.082L407.179 275.938C386.503 278.236 366.4 282.256 347.159 288C302.646 301.21 262.154 323.61 227.692 352.903C227.405 352.903 227.405 353.19 227.118 353.477H227.405C207.303 389.374 193.805 429.579 188.636 472.369C183.467 449.969 180.308 426.708 180.021 402.872C180.021 400.574 180.021 398.564 180.021 396.267C180.021 383.918 180.595 371.856 182.031 360.082C189.497 288 220.226 222.81 266.462 172.267C268.472 170.256 270.195 168.246 272.205 166.236C274.215 164.226 276.226 162.215 278.236 160.205C280.246 158.195 282.256 156.185 284.267 154.462C286.564 152.164 288.862 150.154 291.446 147.856C291.733 147.569 292.021 147.282 292.308 146.995C293.169 146.133 294.318 145.272 295.179 144.41C296.328 143.549 297.477 142.4 298.626 141.538C300.062 140.103 301.785 138.954 303.221 137.805C305.231 136.082 307.528 134.359 309.538 132.923C311.262 131.487 312.985 130.338 314.708 128.903C315.282 128.615 315.856 128.041 316.431 127.754C316.718 127.467 317.005 127.467 317.292 127.179C317.579 127.179 317.579 126.892 317.867 126.605C319.59 125.456 321.026 124.308 322.749 123.159C323.61 122.585 324.472 122.01 325.333 121.436C327.056 120.287 328.779 119.138 330.503 117.99C332.8 116.554 335.385 114.831 337.682 113.395C337.682 113.395 337.969 113.395 337.969 113.108C338.544 112.821 339.118 112.246 339.979 111.959C340.554 111.672 341.415 111.097 341.99 110.81C342.851 110.236 343.426 109.949 344.287 109.374C344.862 109.087 345.149 108.8 345.723 108.513C346.297 108.226 347.159 107.651 347.733 107.364C349.169 106.503 350.318 105.928 351.467 105.067C351.467 105.067 351.467 105.067 351.754 105.067C352.615 104.492 353.477 104.205 354.338 103.631C356.062 102.769 357.785 101.908 359.508 101.046C360.082 100.759 360.656 100.472 361.231 100.185C362.092 99.8974 362.667 99.3231 363.528 99.0359C364.964 98.1744 366.113 97.6 367.549 97.0256C369.559 96.1641 371.569 95.0154 373.579 94.1538C373.867 93.8667 374.441 93.8667 374.728 93.5795C375.303 93.2923 375.877 93.0051 376.451 92.7179C376.738 92.7179 377.026 92.4308 377.313 92.4308C377.6 92.4308 377.887 92.1436 378.174 92.1436C379.323 91.5692 380.472 90.9949 381.908 90.7077C382.769 90.4205 383.631 89.8462 384.492 89.559C386.215 88.9846 387.938 88.1231 389.662 87.5487C390.81 86.9744 392.246 86.6872 393.395 86.1128C393.969 85.8256 394.256 85.8256 394.544 85.5385C397.99 84.1026 401.436 82.9538 404.882 81.8051C407.179 80.9436 409.477 80.3692 411.774 79.5077C414.646 78.6462 417.231 77.7846 420.103 76.9231C420.964 76.6359 421.538 76.3487 422.4 76.3487C423.262 76.0615 424.123 75.7744 424.985 75.4872C425.559 75.2 426.421 75.2 426.995 74.9128C427.282 74.9128 427.569 74.6256 427.856 74.6256C428.431 74.3385 429.005 74.3385 429.867 74.0513C430.441 73.7641 431.303 73.7641 431.877 73.4769C432.164 73.4769 432.451 73.1897 433.026 73.1897C433.313 73.1897 433.887 72.9026 434.174 72.9026C436.185 72.3282 437.908 72.041 439.918 71.4667C441.928 70.8923 443.651 70.6051 445.662 70.3179C446.236 70.3179 446.81 70.0308 447.385 70.0308C449.682 69.7436 451.692 69.1692 453.99 68.8821H454.277C455.713 68.5949 457.436 68.3077 459.159 68.0205C459.159 68.0205 459.446 68.0205 459.733 68.0205C460.308 68.0205 460.595 68.0205 461.169 67.7333C462.031 67.7333 462.605 67.4462 463.467 67.4462C464.328 67.4462 465.19 67.159 466.338 67.159C466.626 67.159 466.913 67.159 467.2 67.159C468.636 66.8718 470.072 66.8718 471.508 66.5846C477.251 66.0103 482.995 65.4359 488.738 64.8615C489.887 64.8615 491.036 64.5744 492.472 64.5744C493.333 64.5744 494.195 64.5744 495.056 64.5744C497.067 64.5744 499.077 64.2872 500.8 64.2872C501.087 64.2872 501.662 64.2872 501.949 64.2872C503.385 64.2872 504.821 64.2872 506.256 64.2872C507.118 64.2872 508.267 64.2872 509.128 64.2872C509.703 64 510.851 64 511.713 64Z" fill="#FAF918"/>
<path d="M937.314 373.867L841.97 360.082L796.596 353.477H795.734L705.847 340.267C697.519 321.887 687.755 304.369 676.555 288C650.134 249.805 616.247 217.067 576.329 192.657C576.042 192.369 575.755 192.369 575.467 192.082L575.755 192.369C555.365 188.349 534.114 186.052 512.575 186.052C491.037 186.052 469.785 188.062 449.108 192.082L449.396 191.221C469.211 179.159 490.175 169.395 512.001 161.641C525.785 156.759 540.144 152.739 554.79 149.867C576.329 145.559 598.729 142.975 621.703 142.975C670.237 142.975 716.185 153.313 757.826 171.98C842.257 210.749 908.308 283.98 937.314 373.867Z" fill="#FAF918"/>
<path d="M911.468 605.334C911.468 616.821 910.894 628.021 909.745 639.221C899.981 735.426 849.15 819.57 775.058 873.559L758.688 777.354L750.935 732.554L750.36 729.682L735.14 641.518C749.211 628.595 762.135 614.523 773.909 599.59C802.052 563.405 822.729 521.19 833.929 475.529L835.078 474.38C835.078 473.518 834.791 472.944 834.791 472.082C829.622 429.867 816.411 390.236 796.883 354.626C814.114 369.559 829.622 386.216 843.694 404.308C852.883 416.082 861.212 428.718 868.678 441.929C895.96 490.175 911.468 545.888 911.468 605.334Z" fill="#FAF918"/>
<circle cx="513.421" cy="511.003" r="328.821" fill="#FAF918"/>
<circle cx="499.077" cy="510.564" r="202.462" fill="white"/>
<path fill-rule="evenodd" clip-rule="evenodd" d="M613.188 699.431C583.456 717.643 549.134 729.375 512.022 732.496C384.903 743.187 273.185 648.804 262.494 521.684C251.802 394.565 346.186 282.848 473.305 272.156C600.425 261.465 712.142 355.849 722.834 482.968C728.141 546.077 707.552 605.389 669.916 650.429L830.353 823.141C815.17 841.283 802.846 852.56 775.581 874.249L613.188 699.431ZM653.786 488.774C661.27 577.758 595.201 655.96 506.217 663.444C417.234 670.928 339.032 604.86 331.548 515.876C324.064 426.893 390.132 348.69 479.116 341.206C568.099 333.722 646.302 399.791 653.786 488.774Z" fill="url(#paint6_linear_661_117)"/>
<defs>
<linearGradient id="paint0_linear_661_117" x1="512" y1="64" x2="512" y2="960" gradientUnits="userSpaceOnUse">
<stop stop-color="#4EDAF9"/>
<stop offset="1" stop-color="#006AFF"/>
</linearGradient>
<linearGradient id="paint1_linear_661_117" x1="295.753" y1="64" x2="295.753" y2="474.379" gradientUnits="userSpaceOnUse">
<stop stop-color="#4EDAF9"/>
<stop offset="1" stop-color="#006AFF"/>
</linearGradient>
<linearGradient id="paint2_linear_661_117" x1="693.354" y1="64.2876" x2="693.354" y2="373.867" gradientUnits="userSpaceOnUse">
<stop stop-color="#4EDAF9"/>
<stop offset="1" stop-color="#006AFF"/>
</linearGradient>
<linearGradient id="paint3_linear_661_117" x1="220.082" y1="374.154" x2="220.082" y2="874.421" gradientUnits="userSpaceOnUse">
<stop stop-color="#4EDAF9"/>
<stop offset="1" stop-color="#006AFF"/>
</linearGradient>
<linearGradient id="paint4_linear_661_117" x1="867.241" y1="353.19" x2="867.241" y2="873.847" gradientUnits="userSpaceOnUse">
<stop stop-color="#4EDAF9"/>
<stop offset="1" stop-color="#006AFF"/>
</linearGradient>
<linearGradient id="paint5_linear_661_117" x1="536.123" y1="732.267" x2="536.123" y2="959.426" gradientUnits="userSpaceOnUse">
<stop stop-color="#4EDAF9"/>
<stop offset="1" stop-color="#006AFF"/>
</linearGradient>
<linearGradient id="paint6_linear_661_117" x1="393" y1="332" x2="804.621" y2="850.049" gradientUnits="userSpaceOnUse">
<stop stop-color="#4EDAF9"/>
<stop offset="1" stop-color="#006AFF"/>
</linearGradient>
</defs>
</svg>
